<?xml version="1.0" encoding="UTF-8"?>
<svg id="Layer_1" data-name="Layer 1" xmlns="http://www.w3.org/2000/svg" viewBox="0 0 1300 380.57">
  <defs>
    <style>
      .cls-1 {
        fill: #135638;
      }
    </style>
  </defs>
  <g>
    <g>
      <path class="cls-1" d="M243.1,322.45l-50.32-61.17,20.77-20.76,3.78,3.78-17.33,17.33,43.52,52.9c26.01-26.32,40.31-61.1,40.31-98.24,0-77.13-62.75-139.88-139.88-139.88-27.03,0-53.25,7.72-75.82,22.31-.44.28-.88.56-1.32.84l114.14,138.91,15.57-15.57,3.78,3.78-19.75,19.74L58.97,98.46l2.38-1.66c1.26-.88,2.59-1.76,3.91-2.59,23.41-15.14,50.63-23.15,78.69-23.15,80.08,0,145.23,65.15,145.23,145.23,0,39.58-15.62,76.56-43.99,104.13l-2.08,2.03Z"/>
      <rect class="cls-1" x="217.18" y="253.05" width="5.35" height="73.87" transform="translate(-134.16 205.72) rotate(-39.44)"/>
      <rect class="cls-1" x="119.15" y="77.89" width="5.35" height="185.69" transform="translate(-80.69 116.16) rotate(-39.41)"/>
      <path class="cls-1" d="M217.24,244.37l-3.7-3.84.42-.39c2.3-1.78,3.62-4.52,3.62-7.51,0-5.28-4.32-9.58-9.63-9.58-2.66,0-5.18,1.08-6.92,2.95l-.71.71-3.78-3.78.64-.64c2.68-2.89,6.64-4.58,10.77-4.58,8.26,0,14.98,6.7,14.98,14.93,0,4.67-2.08,8.95-5.69,11.75Z"/>
      <rect class="cls-1" x="176.98" y="230.64" width="25.88" height="5.35" transform="translate(-109.35 202.63) rotate(-45)"/>
      <polygon class="cls-1" points="198.28 263.35 194.5 259.57 213.55 240.52 217.5 244.14 198.28 263.35"/>
    </g>
    <path class="cls-1" d="M94.32,137.15l-3.49-4.06c21.67-18.63,71.56-45,162.17-12.15l-1.82,5.03c-88.06-31.93-136.08-6.69-156.86,11.18Z"/>
    <path class="cls-1" d="M131.49,182.24l-3.66-3.91c25-23.41,68.2-50.77,132.09-47.7l-.25,5.34c-62.02-2.93-103.94,23.57-128.19,46.27Z"/>
    <path class="cls-1" d="M166.05,223.18l-4.59-2.74c15.27-25.57,45.95-59.77,105.45-77.5l1.53,5.13c-57.85,17.23-87.61,50.36-102.39,75.11Z"/>
    <path class="cls-1" d="M221.69,292.01l-3.61-3.95c24.52-22.39,55.78-55.03,65.46-83.38l5.06,1.72c-10.05,29.43-41.94,62.8-66.92,85.61Z"/>
    <path class="cls-1" d="M221.8,232.01l-3.63-3.93c30.14-27.84,49.77-49.76,56.74-63.41l4.77,2.44c-7.37,14.41-26.84,36.25-57.88,64.91Z"/>
    <g>
      <g>
        <path class="cls-1" d="M331.64,322.45l-2.08-2.03c-28.37-27.57-43.99-64.55-43.99-104.13,0-80.08,65.15-145.23,145.23-145.23,28.06,0,55.28,8.01,78.72,23.17,1.29.81,2.61,1.68,3.87,2.57l2.38,1.66-121.6,147.98-19.74-19.74,3.78-3.78,15.57,15.57,114.14-138.91c-.43-.28-.86-.55-1.28-.82-22.6-14.62-48.82-22.33-75.85-22.33-77.13,0-139.88,62.75-139.88,139.88,0,37.14,14.29,71.92,40.31,98.24l43.52-52.9-17.33-17.33,3.78-3.78,20.77,20.76-50.32,61.17Z"/>
        <rect class="cls-1" x="317.96" y="287.31" width="73.87" height="5.35" transform="translate(-94.47 380.07) rotate(-50.59)"/>
        <rect class="cls-1" x="360.08" y="168.06" width="185.69" height="5.35" transform="translate(33.46 412.27) rotate(-50.59)"/>
        <path class="cls-1" d="M357.4,244.3c-3.52-2.73-5.59-7.01-5.59-11.68,0-8.23,6.72-14.93,14.98-14.93,4.14,0,8.09,1.69,10.84,4.65l.58.57-3.78,3.78-.64-.64c-1.81-1.94-4.33-3.02-6.99-3.02-5.31,0-9.63,4.3-9.63,9.58,0,3,1.32,5.74,3.62,7.51l.42.39-3.8,3.77Z"/>
        <rect class="cls-1" x="382.15" y="220.37" width="5.35" height="25.88" transform="translate(-52.26 340.45) rotate(-45)"/>
        <polygon class="cls-1" points="376.46 263.35 357.41 244.3 361.04 240.36 380.25 259.57 376.46 263.35"/>
      </g>
      <path class="cls-1" d="M480.42,137.15c-20.79-17.88-68.81-43.1-156.86-11.18l-1.82-5.03c90.61-32.87,140.5-6.5,162.17,12.15l-3.49,4.06Z"/>
      <path class="cls-1" d="M443.25,182.24c-24.25-22.71-66.16-49.12-128.19-46.27l-.25-5.34c63.88-3,107.09,24.29,132.09,47.7l-3.66,3.91Z"/>
      <path class="cls-1" d="M408.7,223.18c-14.78-24.75-44.54-57.87-102.39-75.11l1.53-5.13c59.5,17.73,90.19,51.93,105.45,77.5l-4.59,2.74Z"/>
      <path class="cls-1" d="M353.06,292.01c-24.98-22.81-56.87-56.18-66.92-85.61l5.06-1.72c9.68,28.35,40.95,60.99,65.47,83.38l-3.61,3.95Z"/>
      <path class="cls-1" d="M352.94,232.01c-31.04-28.66-50.51-50.5-57.88-64.91l4.77-2.44c6.98,13.65,26.6,35.58,56.74,63.41l-3.63,3.93Z"/>
    </g>
    <path class="cls-1" d="M288.67,58.12l5.58,18.68c.47,1.57,1.69,2.79,3.26,3.26l18.68,5.58-18.68,5.58c-1.57.47-2.79,1.69-3.26,3.26l-5.58,18.68-5.58-18.68c-.47-1.57-1.69-2.79-3.26-3.26l-18.68-5.58,18.68-5.58c1.57-.47,2.79-1.69,3.26-3.26l5.58-18.68Z"/>
  </g>
  <path class="cls-1" d="M563.78,370.57H10V10h553.78v360.57ZM17.94,362.63h537.91V17.94H17.94v344.7Z"/>
  <path class="cls-1" d="M1290,370.57h-734.15V10h734.15v360.57ZM563.78,362.63h718.28V17.94h-718.28v344.7Z"/>
  <g>
    <path class="cls-1" d="M653.39,94.19h-29.5v-10.83h72.06v10.83h-29.46v68.01h-13.1v-68.01Z"/>
    <path class="cls-1" d="M708.79,83.36h13.04v31.34h44.8v-31.34h13.04v78.83h-13.04v-36.67h-44.8v36.67h-13.04v-78.83Z"/>
    <path class="cls-1" d="M861.57,126.31h-46.5v25.07h51.39l-1.67,10.81h-62.76v-78.83h61.99v10.81h-48.95v21.32h46.5v10.81Z"/>
    <path class="cls-1" d="M933.54,94.19h-29.5v-10.83h72.06v10.83h-29.45v68.01h-13.1v-68.01Z"/>
    <path class="cls-1" d="M1001.93,129.08v33.12h-12.94v-78.83h38.91c16.64,0,27.35,7.77,27.35,21.67,0,9.68-5.02,16.25-14.24,18.76,4.72,1.4,12.18,5.15,12.18,19.02v3.58c0,5.89-.05,12.39.94,15.81h-13.35c-1.21-3.45-1.13-9.12-1.13-16.15v-2.61c0-10.76-4.13-14.35-17.39-14.35h-20.32ZM1001.93,118.71h22.8c11.59,0,17.15-4.09,17.15-12.81,0-8.04-5.61-12.16-16.8-12.16h-23.16v24.98Z"/>
    <path class="cls-1" d="M1085.35,83.36v44.75c0,19.73,11.34,25.08,22.76,25.08,13.46,0,21.73-6.26,21.73-25.08v-44.75h13.04v44.8c0,25.22-13.4,35.7-35.21,35.7s-35.37-10.4-35.37-34.94v-45.56h13.04Z"/>
    <path class="cls-1" d="M1223.95,126.31h-46.5v25.07h51.39l-1.67,10.81h-62.76v-78.83h61.99v10.81h-48.95v21.32h46.5v10.81Z"/>
    <path class="cls-1" d="M653.39,227.54h-29.5v-10.83h72.06v10.83h-29.46v68.01h-13.1v-68.01Z"/>
    <path class="cls-1" d="M784.36,255.88c0,22.18-14.95,41.33-41.92,41.33s-41.44-18.25-41.44-41.34c0-21.82,16.25-40.83,41.9-40.83s41.46,19.05,41.46,40.84ZM714.79,255.58c0,16.47,9.68,30.95,28.21,30.95s27.57-14.34,27.57-30.43-9.46-30.39-28.29-30.39c-17.66,0-27.5,14.02-27.5,29.87Z"/>
    <path class="cls-1" d="M813.98,216.71v44.75c0,19.73,11.34,25.08,22.76,25.08,13.46,0,21.73-6.26,21.73-25.08v-44.75h13.04v44.8c0,25.23-13.4,35.7-35.21,35.7s-35.37-10.4-35.37-34.94v-45.56h13.04Z"/>
    <path class="cls-1" d="M965.77,272c-4.3,13.6-14.44,25.21-37.46,25.21-26.65,0-40.73-18.6-40.73-40.94s15.59-41.23,41.41-41.23c23.09,0,34.1,12.53,37,25.53h-13.32c-2.98-7.37-8.82-14.91-23.84-14.91-17.3,0-27.47,12.86-27.47,30.14s9.94,30.84,27.58,30.84c13.98,0,19.68-5.89,23.67-14.64h13.15Z"/>
    <path class="cls-1" d="M981.16,216.71h13.04v31.34h44.8v-31.34h13.04v78.83h-13.04v-36.67h-44.8v36.67h-13.04v-78.83Z"/>
  </g>
</svg>